<svg width="28" height="30" viewBox="0 0 28 30" fill="none" xmlns="http://www.w3.org/2000/svg">
<g filter="url(#filter0_d_2_18959)">
<path d="M22.47 2H5.53C5.33958 1.99736 5.1505 2.03225 4.97356 2.10269C4.79663 2.17312 4.6353 2.27772 4.4988 2.41051C4.36229 2.54331 4.25328 2.70169 4.17799 2.87661C4.1027 3.05154 4.06261 3.23958 4.06 3.43V20.57C4.06261 20.7604 4.1027 20.9485 4.17799 21.1234C4.25328 21.2983 4.36229 21.4567 4.4988 21.5895C4.6353 21.7223 4.79663 21.8269 4.97356 21.8973C5.1505 21.9678 5.33958 22.0026 5.53 22H22.47C22.6604 22.0026 22.8495 21.9678 23.0264 21.8973C23.2034 21.8269 23.3647 21.7223 23.5012 21.5895C23.6377 21.4567 23.7467 21.2983 23.822 21.1234C23.8973 20.9485 23.9374 20.7604 23.94 20.57V3.43C23.9374 3.23958 23.8973 3.05154 23.822 2.87661C23.7467 2.70169 23.6377 2.54331 23.5012 2.41051C23.3647 2.27772 23.2034 2.17312 23.0264 2.10269C22.8495 2.03225 22.6604 1.99736 22.47 2ZM10.09 18.74H7.09V9.74H10.09V18.74ZM8.59 8.48C8.17626 8.48 7.77947 8.31565 7.48691 8.02309C7.19435 7.73053 7.03 7.33374 7.03 6.92C7.03 6.50626 7.19435 6.10947 7.48691 5.81692C7.77947 5.52436 8.17626 5.36 8.59 5.36C8.80969 5.33509 9.03217 5.35686 9.24287 5.42389C9.45357 5.49092 9.64774 5.60169 9.81265 5.74896C9.97757 5.89624 10.1095 6.07668 10.1999 6.27848C10.2902 6.48029 10.3369 6.6989 10.3369 6.92C10.3369 7.14111 10.2902 7.35972 10.1999 7.56152C10.1095 7.76332 9.97757 7.94377 9.81265 8.09104C9.64774 8.23831 9.45357 8.34909 9.24287 8.41612C9.03217 8.48315 8.80969 8.50492 8.59 8.48ZM20.91 18.74H17.91V13.91C17.91 12.7 17.48 11.91 16.39 11.91C16.0527 11.9125 15.7242 12.0183 15.4488 12.2132C15.1735 12.4081 14.9645 12.6827 14.85 13C14.7717 13.235 14.7378 13.4826 14.75 13.73V18.73H11.75C11.75 18.73 11.75 10.55 11.75 9.73H14.75V11C15.0225 10.5271 15.4189 10.1375 15.8964 9.8732C16.374 9.60889 16.9146 9.47985 17.46 9.5C19.46 9.5 20.91 10.79 20.91 13.56V18.74Z" fill="#424242"/>
</g>
<defs>
<filter id="filter0_d_2_18959" x="-2" y="0" width="32" height="32" filterUnits="userSpaceOnUse" color-interpolation-filters="sRGB">
<feFlood flood-opacity="0" result="BackgroundImageFix"/>
<feColorMatrix in="SourceAlpha" type="matrix" values="0 0 0 0 0 0 0 0 0 0 0 0 0 0 0 0 0 0 127 0" result="hardAlpha"/>
<feOffset dy="4"/>
<feGaussianBlur stdDeviation="2"/>
<feComposite in2="hardAlpha" operator="out"/>
<feColorMatrix type="matrix" values="0 0 0 0 0 0 0 0 0 0 0 0 0 0 0 0 0 0 0.25 0"/>
<feBlend mode="normal" in2="BackgroundImageFix" result="effect1_dropShadow_2_18959"/>
<feBlend mode="normal" in="SourceGraphic" in2="effect1_dropShadow_2_18959" result="shape"/>
</filter>
</defs>
</svg>
