<svg id="Layer_2" data-name="Layer 2" xmlns="http://www.w3.org/2000/svg" viewBox="0 0 128 128"><title>DIVING MASK</title><path d="M118,72.741V41.407a6.758,6.758,0,0,0-6.75-6.75H16.75A6.758,6.758,0,0,0,10,41.407V72.741a6.758,6.758,0,0,0,6.75,6.75H39.842a1.75,1.75,0,0,0,1.238-.513l4.149-4.15a18.131,18.131,0,0,1,12.905-5.346H69.866a18.133,18.133,0,0,1,12.905,5.345l4.15,4.151a1.749,1.749,0,0,0,1.237.512H111.25A6.758,6.758,0,0,0,118,72.741Zm-32.755-.387a21.6,21.6,0,0,0-15.379-6.371H58.134a21.613,21.613,0,0,0-15.381,6.371l-3.636,3.638H16.75a3.254,3.254,0,0,1-3.25-3.25V41.407a3.254,3.254,0,0,1,3.25-3.25h94.5a3.254,3.254,0,0,1,3.25,3.25V72.741a3.254,3.254,0,0,1-3.25,3.25H88.883Z"/><path d="M126.25,0h-12a1.749,1.749,0,0,0-1.75,1.75V24.72c-.414-.03-.828-.063-1.25-.063H16.75A16.769,16.769,0,0,0,0,41.407V72.74A16.768,16.768,0,0,0,16.75,89.49H39.842a11.669,11.669,0,0,0,8.308-3.441L52.3,81.9a8.2,8.2,0,0,1,5.834-2.416H69.866A8.308,8.308,0,0,1,75.7,81.9l4.151,4.151a11.672,11.672,0,0,0,8.308,3.441H111.25c.422,0,.836-.032,1.25-.063v5.9a12.263,12.263,0,0,1-12.25,12.25H83.1v-3.167a1.75,1.75,0,0,0-1.75-1.75H74.978l-4.49-7.185A1.752,1.752,0,0,0,69,94.658H59a1.752,1.752,0,0,0-1.484.822l-4.49,7.185H46.65a1.75,1.75,0,0,0-1.75,1.75v3.168H34.75a4.756,4.756,0,0,0-4.75,4.75v6a4.756,4.756,0,0,0,4.75,4.75H44.9v3.167A1.75,1.75,0,0,0,46.65,128h34.7a1.75,1.75,0,0,0,1.75-1.75v-3.168h17.15A27.781,27.781,0,0,0,128,95.332V1.75A1.749,1.749,0,0,0,126.25,0ZM88.158,85.99a8.2,8.2,0,0,1-5.834-2.416l-4.15-4.15a11.668,11.668,0,0,0-8.308-3.442H58.134a11.67,11.67,0,0,0-8.308,3.442l-4.15,4.15a8.2,8.2,0,0,1-5.834,2.416H16.75A13.265,13.265,0,0,1,3.5,72.74V41.407a13.266,13.266,0,0,1,13.25-13.25h94.5a13.4,13.4,0,0,1,13.25,13.25V72.74a13.4,13.4,0,0,1-13.25,13.25ZM34.75,119.583a1.252,1.252,0,0,1-1.25-1.25v-6a1.252,1.252,0,0,1,1.25-1.25H44.9v8.5ZM56.4,124.5V114.165H71.6V124.5Zm23.2,0H75.1V112.415a1.75,1.75,0,0,0-1.75-1.75H54.65a1.75,1.75,0,0,0-1.75,1.75V124.5H48.4V106.165h5.592a1.751,1.751,0,0,0,1.484-.822l4.49-7.185h8.068l4.489,7.185a1.754,1.754,0,0,0,1.485.822H79.6V124.5Zm44.9-41.532V95.332a24.278,24.278,0,0,1-24.25,24.25H83.1v-8.5h17.15A15.767,15.767,0,0,0,116,95.332V88.806A16.891,16.891,0,0,0,124.5,82.968Zm-.6-52.5a16.81,16.81,0,0,0-7.9-5.123V3.5h8.5V31.18C124.311,30.935,124.105,30.7,123.9,30.465Z"/></svg>